<?xml version="1.0" encoding="utf-8"?>
<!--Generator: Adobe Illustrator 21.0.2, SVG Export Plug-In . SVG Version: 6.00 Build 0)-->
<svg xmlns="http://www.w3.org/2000/svg" xmlns:xlink="http://www.w3.org/1999/xlink" id="Layer_1" x="0px" y="0px" fill="#e9775c" style="enable-background:new 0 0 119 117" version="1.1" viewBox="0 0 119 117" xml:space="preserve">
    <g>
        <path d="M89.7,89.5c-5.3,0-9.7,4.4-9.7,9.8c0,5.4,4.3,9.8,9.7,9.8c5.3,0,9.7-4.4,9.7-9.8C99.4,93.8,95,89.5,89.7,89.5" class="st0"/>
        <path d="M46,89.5c-5.3,0-9.7,4.4-9.7,9.8c0,5.4,4.3,9.8,9.7,9.8c5.3,0,9.7-4.4,9.7-9.8C55.6,93.8,51.3,89.5,46,89.5" class="st0"/>
        <path d="M117.3,23.3c-0.9-1.3-2.4-2-4-2H30.6l-1.6-7c-0.5-2.2-2.5-3.8-4.8-3.8H5.6c-2.7,0-4.9,2.2-4.9,4.9
		c0,2.7,2.2,4.9,4.9,4.9h14.7l13.8,59.8c0.5,2.2,2.5,3.8,4.8,3.8h59.4c2.7,0,4.9-2.2,4.9-4.9c0-2.7-2.2-4.9-4.9-4.9H42.8l-1.8-7.6
		h61.2c2.1,0,4-1.4,4.7-3.4L118,27.7C118.5,26.2,118.2,24.6,117.3,23.3" class="st0"/>
    </g>
</svg>
