<svg xmlns="http://www.w3.org/2000/svg" xmlns:xlink="http://www.w3.org/1999/xlink" x="0px" y="0px" enable-background="new 0 0 100 100" version="1.1" viewBox="0 0 95 100" xml:space="preserve">
    <g>
        <g>
            <path fill="#92c7bb" stroke="#92c7bb" stroke-width="2" d="M94.416,28.661l-7.205-7.212c-0.772-0.772-2.026-0.772-2.798,0l-6.532,6.525l-8.426,8.426v-9.897    c0-1.095-0.884-1.979-1.979-1.979H6.979C5.891,24.524,5,25.408,5,26.504V77.15c0,1.095,0.891,1.979,1.979,1.979h60.497    c1.095,0,1.979-0.884,1.979-1.979V56.426l18.435-18.441l6.526-6.525C95.195,30.687,95.195,29.433,94.416,28.661z M8.959,28.483    h56.538V40.36l-7.825,7.832l-6.129-6.123c-0.772-0.772-2.026-0.772-2.798,0L29.01,61.803l-6.347-6.354    c-0.779-0.772-2.026-0.772-2.804,0l-10.9,10.9V28.483z M65.497,75.171H8.959v-3.226l12.299-12.292l6.354,6.347    c0.772,0.772,2.026,0.772,2.798,0l19.735-19.735l4.724,4.731l-2.191,2.191c-0.178,0.178-0.323,0.389-0.422,0.62l-5.397,12.602    c-0.317,0.746-0.152,1.61,0.422,2.184c0.383,0.376,0.884,0.581,1.399,0.581c0.264,0,0.528-0.053,0.779-0.165l12.609-5.397    c0.231-0.099,0.442-0.238,0.62-0.416l2.811-2.811V75.171z M55.026,57.396l3.444,3.451l-6.024,2.58L55.026,57.396z M66.078,54.202    c-0.046,0.046-0.086,0.092-0.132,0.139l-5.127,5.12l-4.408-4.414l2.613-2.613c0.013-0.013,0.033-0.026,0.046-0.04    c0.02-0.02,0.04-0.04,0.059-0.066l20.302-20.295l4.408,4.407L66.078,54.202z M85.707,34.573l-4.408-4.407l4.513-4.513l4.407,4.407    L85.707,34.573z"/>
        </g>
    </g>
    <g>
        <path fill="#92c7bb" stroke="#92c7bb" stroke-width="2" d="M24.713,50.176c-4.242,0-7.693-3.451-7.693-7.693s3.451-7.693,7.693-7.693s7.693,3.451,7.693,7.693   S28.954,50.176,24.713,50.176z M24.713,38.75c-2.059,0-3.734,1.675-3.734,3.734s1.675,3.734,3.734,3.734s3.734-1.675,3.734-3.734   S26.771,38.75,24.713,38.75z"/>
    </g>
</svg>
