<?xml version="1.0" encoding="utf-8"?>
<!--Generator: Adobe Illustrator 21.0.2, SVG Export Plug-In . SVG Version: 6.00 Build 0)-->
<svg xmlns="http://www.w3.org/2000/svg" xmlns:xlink="http://www.w3.org/1999/xlink" id="Layer_1" x="0px" y="0px" fill="#e9775c" style="enable-background:new 0 0 119 117" version="1.1" viewBox="0 0 119 117" xml:space="preserve">
    <g class="st0">
        <path d="M60,10c-26.7,0-48.4,22.4-48.4,50c0,27.6,21.7,50,48.4,50c26.7,0,48.4-22.4,48.4-50C108.4,32.4,86.7,10,60,10
		 M60,100.2c-21.5,0-39-18.1-39-40.2s17.5-40.2,39-40.2c21.5,0,39,18.1,39,40.2S81.5,100.2,60,100.2" class="st1"/>
        <path d="M59.1,31.9c-6.4,0-12.3,3.4-15.5,8.9c-0.7,1.2-0.9,2.5-0.6,3.8c0.3,1.3,1.2,2.5,2.4,3.2
		c0.8,0.5,1.7,0.7,2.6,0.7c1.8,0,3.5-1,4.5-2.6c1.4-2.3,3.9-3.8,6.7-3.8c4.5,0,8,3.4,8,7.7c0,4.3-3.6,7.7-8,7.7
		c-2.7,0-5,2.3-5.1,4.9l0,6.4c0,2.8,2.3,5.1,5.1,5.1c2.9,0,5.1-2.2,5.1-5.1v-1.8c7.7-2.2,13-9.2,13-17.2
		C77.2,40,69.1,31.9,59.1,31.9" class="st1"/>
        <path d="M58.9,77.9c-3.1,0-5.6,2.6-5.6,5.8c0,3.2,2.5,5.8,5.6,5.8c3.1,0,5.6-2.6,5.6-5.8C64.5,80.5,62,77.9,58.9,77.9" class="st1"/>
    </g>
</svg>
